<?xml version="1.0" standalone="no"?>
<!DOCTYPE svg PUBLIC "-//W3C//DTD SVG 20010904//EN"
 "http://www.w3.org/TR/2001/REC-SVG-20010904/DTD/svg10.dtd">
<svg version="1.0" xmlns="http://www.w3.org/2000/svg"
 width="300.000000pt" height="300.000000pt" viewBox="0 0 300.000000 300.000000"
 preserveAspectRatio="xMidYMid meet">
<metadata>
Created by potrace 1.10, written by Peter Selinger 2001-2011
</metadata>
<g transform="translate(0.000000,300.000000) scale(0.100000,-0.100000)"
fill="#000000" stroke="none">
<path d="M375 2395 c3 -22 9 -137 15 -255 6 -118 17 -341 25 -495 8 -154 20
-374 25 -490 6 -115 15 -285 21 -377 5 -92 9 -176 9 -188 0 -20 0 -20 1030
-20 l1030 0 0 21 c0 12 4 96 10 187 5 92 14 262 20 377 16 318 19 384 30 585
5 102 14 282 20 400 6 118 12 233 15 255 4 38 4 39 -11 19 -8 -12 -146 -201
-307 -421 -161 -219 -299 -409 -307 -421 -14 -20 -26 -1 -255 413 -132 239
-242 435 -245 435 -3 0 -113 -196 -245 -435 -229 -414 -241 -433 -255 -413 -8
12 -146 202 -307 421 -161 220 -299 409 -307 421 -15 20 -15 19 -11 -19z
m1342 -441 c114 -207 222 -391 240 -408 27 -27 29 -34 18 -49 -6 -9 -18 -17
-26 -17 -8 0 -102 138 -208 306 -107 168 -205 313 -218 321 -21 14 -26 14 -47
0 -12 -9 -110 -152 -216 -319 -106 -167 -196 -307 -200 -312 -5 -4 -18 2 -30
14 l-22 22 34 32 c19 19 123 196 241 410 115 207 212 376 217 376 5 0 102
-169 217 -376z m-1083 53 c159 -219 192 -267 182 -267 -2 0 -74 81 -160 179
-155 178 -170 191 -207 191 -17 0 -19 8 -19 82 0 82 0 82 19 63 11 -11 94
-123 185 -248z m1936 183 c0 -72 -2 -80 -19 -80 -37 0 -52 -13 -207 -191 -86
-98 -158 -179 -161 -179 -8 0 20 42 145 215 142 196 231 315 237 315 3 0 5
-36 5 -80z m-1915 -330 c98 -113 227 -262 288 -332 60 -70 112 -126 116 -124
3 2 103 157 221 345 118 187 217 340 220 340 3 0 102 -153 220 -340 118 -188
218 -343 221 -345 4 -2 56 54 116 124 343 396 466 539 480 552 13 13 14 11 9
-20 -3 -19 -11 -91 -16 -160 -6 -69 -17 -201 -25 -295 -21 -241 -53 -617 -65
-770 -6 -71 -13 -145 -16 -163 l-5 -32 -919 0 -918 0 -6 28 c-3 15 -8 68 -11
117 -3 50 -8 106 -10 125 -3 19 -14 148 -25 285 -12 138 -27 324 -35 415 -8
91 -19 221 -25 290 -5 69 -13 141 -16 160 -7 44 -23 59 201 -200z m-134 -1033
c9 -94 20 -183 24 -196 7 -19 5 -22 -11 -19 -14 2 -20 15 -25 48 -10 75 -21
355 -13 347 4 -4 15 -85 25 -180z m1979 11 c-2 -175 -9 -222 -34 -226 -16 -3
-18 0 -12 19 5 13 15 97 24 186 9 90 18 161 20 159 2 -3 3 -65 2 -138z"/>
<path d="M554 1775 c3 -38 10 -151 16 -250 5 -99 17 -325 27 -502 l17 -323
878 0 c483 0 881 -1 886 -2 8 -3 16 98 31 412 15 304 29 566 37 660 l5 75
-271 -270 c-211 -210 -273 -267 -280 -255 -4 8 -92 123 -195 255 -102 132
-191 247 -196 255 -8 13 -10 13 -18 0 -5 -8 -94 -123 -196 -255 -103 -132
-190 -247 -195 -255 -7 -12 -69 44 -280 255 l-271 270 5 -70z m998 -48 c26
-34 56 -73 67 -87 50 -63 161 -205 211 -269 61 -79 79 -90 112 -67 13 9 123
116 246 239 l223 222 -2 -103 c-1 -56 -5 -157 -9 -225 -5 -67 -11 -180 -14
-252 -3 -71 -9 -193 -13 -270 -3 -77 -9 -151 -13 -165 l-6 -25 -845 0 c-464 0
-849 1 -856 3 -15 5 -20 49 -28 212 -3 69 -10 213 -15 320 -20 395 -23 490
-16 490 5 0 109 -100 232 -222 124 -123 231 -226 239 -231 23 -12 65 18 110
79 22 29 43 54 48 54 4 0 7 4 7 10 0 9 17 33 45 64 6 6 31 38 55 71 25 33 50
65 55 71 6 7 33 41 60 78 28 36 52 65 55 65 3 0 26 -28 52 -62z"/>
</g>
</svg>
